M48
;GenerationSoftware,Autodesk,EAGLE,9.5.2*%
;CreationDate,2021-01-12T23:57:30Z*%
FMAT,2
ICI,OFF
METRIC,TZ,000.000
T6C0.254
T5C0.400
T4C0.650
T3C1.016
T2C2.500
T1C2.540
%
G90
M71
T1
X72644Y117348
X90424Y117348
X2540Y55880
X20320Y55880
X25908Y55880
X43688Y55880
X49276Y55880
X67056Y55880
X72644Y55880
X90424Y55880
X2540Y117348
X20320Y117348
X25908Y117348
X43688Y117348
X49276Y117348
X67056Y117348
T2
X2540Y2540
X20320Y2540
X67056Y2540
X20320Y64008
X2540Y64008
X25908Y2540
X43688Y2540
X72644Y2540
X90424Y2540
X43688Y64008
X25908Y64008
X90424Y64008
X72644Y64008
X67056Y64008
X49276Y64008
X49276Y2540
T3
X1270Y29210
X21590Y39370
X71374Y103378
X71374Y105918
X71374Y108458
X71374Y110998
X71374Y113538
X91694Y75438
X91694Y77978
X91694Y80518
X91694Y83058
X91694Y85598
X91694Y88138
X91694Y90678
X91694Y93218
X91694Y95758
X91694Y98298
X91694Y100838
X1270Y24130
X1270Y26670
X24638Y41910
X1270Y31750
X1270Y34290
X1270Y36830
X1270Y39370
X1270Y41910
X1270Y44450
X1270Y46990
X1270Y49530
X1270Y52070
X21590Y13970
X21590Y16510
X21590Y19050
X21590Y21590
X21590Y24130
X21590Y26670
X21590Y29210
X21590Y31750
X21590Y34290
X21590Y36830
X21590Y41910
X21590Y44450
X21590Y46990
X21590Y49530
X21590Y52070
X91694Y103378
X91694Y105918
X91694Y108458
X91694Y110998
X24638Y24130
X24638Y26670
X24638Y29210
X24638Y31750
X24638Y34290
X24638Y36830
X24638Y39370
X91694Y113538
X24638Y44450
X24638Y46990
X24638Y49530
X24638Y52070
X44958Y13970
X44958Y16510
X44958Y19050
X44958Y21590
X44958Y24130
X44958Y26670
X44958Y29210
X44958Y31750
X44958Y34290
X44958Y36830
X44958Y39370
X44958Y41910
X44958Y44450
X44958Y46990
X44958Y49530
X44958Y52070
X48006Y24130
X48006Y26670
X48006Y29210
X48006Y31750
X48006Y34290
X48006Y36830
X48006Y39370
X48006Y41910
X48006Y44450
X48006Y46990
X48006Y49530
X48006Y52070
X68326Y13970
X68326Y16510
X68326Y19050
X68326Y21590
X68326Y24130
X68326Y26670
X68326Y29210
X68326Y31750
X68326Y34290
X68326Y36830
X68326Y39370
X68326Y41910
X68326Y44450
X68326Y46990
X68326Y49530
X68326Y52070
X71374Y24130
X71374Y26670
X71374Y29210
X71374Y31750
X71374Y34290
X71374Y36830
X71374Y39370
X71374Y41910
X71374Y44450
X71374Y46990
X71374Y49530
X71374Y52070
X91694Y13970
X91694Y16510
X91694Y19050
X91694Y21590
X91694Y24130
X91694Y26670
X91694Y29210
X91694Y31750
X91694Y34290
X91694Y36830
X91694Y39370
X91694Y41910
X91694Y44450
X91694Y46990
X91694Y49530
X91694Y52070
X1270Y85598
X1270Y88138
X1270Y90678
X1270Y93218
X1270Y95758
X1270Y98298
X1270Y100838
X1270Y103378
X1270Y105918
X1270Y108458
X1270Y110998
X1270Y113538
X21590Y75438
X21590Y77978
X21590Y80518
X21590Y83058
X21590Y85598
X21590Y88138
X21590Y90678
X21590Y93218
X21590Y95758
X21590Y98298
X21590Y100838
X21590Y103378
X21590Y105918
X21590Y108458
X21590Y110998
X21590Y113538
X24638Y85598
X24638Y88138
X24638Y90678
X24638Y93218
X24638Y95758
X24638Y98298
X24638Y100838
X24638Y103378
X24638Y105918
X24638Y108458
X24638Y110998
X24638Y113538
X44958Y75438
X44958Y77978
X44958Y80518
X44958Y83058
X44958Y85598
X44958Y88138
X44958Y90678
X44958Y93218
X44958Y95758
X44958Y98298
X44958Y100838
X44958Y103378
X44958Y105918
X44958Y108458
X44958Y110998
X44958Y113538
X48006Y85598
X48006Y88138
X48006Y90678
X48006Y93218
X48006Y95758
X48006Y98298
X48006Y100838
X48006Y103378
X48006Y105918
X48006Y108458
X48006Y110998
X48006Y113538
X68326Y75438
X68326Y77978
X68326Y80518
X68326Y83058
X68326Y85598
X68326Y88138
X68326Y90678
X68326Y93218
X68326Y95758
X68326Y98298
X68326Y100838
X68326Y103378
X68326Y105918
X68326Y108458
X68326Y110998
X68326Y113538
X71374Y85598
X71374Y88138
X71374Y90678
X71374Y93218
X71374Y95758
X71374Y98298
X71374Y100838
T4
X8540Y4905
X14320Y4905
X31908Y4905
X37688Y4905
X55276Y4905
X61056Y4905
X78644Y4905
X84424Y4905
X8540Y66373
X14320Y66373
X31908Y66373
X37688Y66373
X55276Y66373
X61056Y66373
X78644Y66373
X84424Y66373
T5
X7112Y1255
X15748Y1255
X15748Y5435
X7112Y5435
X77216Y66903
X39116Y66903
X30480Y66903
X30480Y5435
X39116Y5435
X85852Y5435
X77216Y5435
X7112Y62723
X15748Y62723
X15748Y66903
X7112Y66903
X62484Y1255
X53848Y1255
X53848Y5435
X62484Y5435
X53848Y62723
X62484Y62723
X62484Y66903
X53848Y66903
X39116Y1255
X30480Y1255
X77216Y1255
X85852Y1255
X30480Y62723
X39116Y62723
X77216Y62723
X85852Y62723
X85852Y66903
T6
X24628Y10300
X32689Y24861
X44268Y8050
X29278Y21900
X29678Y21600
X29228Y21400
X36428Y22300
X35328Y22200
X35828Y22400
X36973Y8855
X28528Y45388
X27828Y30220
X27328Y7368
X32800Y28100
X28728Y45970
X28262Y29815
X29728Y7200
X35384Y27100
X29068Y20050
X27378Y33138
X29618Y20020
X30618Y20020
X30118Y20020
X38948Y7304
X39768Y33720
X39281Y22951
X42353Y41295
X43228Y49000
X35728Y11220
X36228Y11220
X36128Y10720
X36728Y11420
X35628Y10720
X30278Y25170
X30678Y25470
X31078Y25170
X30278Y25770
X30678Y26070
X31078Y25770
X31178Y26270
X30778Y26620
X36628Y10920
X26328Y31020
X30678Y24820
X29960Y30762
X39760Y15590
X40310Y15590
X42188Y18400
X34028Y10980
X33628Y10680
X33628Y11280
X34428Y11280
X34428Y10680
X28578Y41970
X28328Y1100
X25128Y25500
X28328Y38120
X28970Y43352
X28698Y44050
X41048Y36910
X41378Y37420
X40852Y37894
X41246Y38326
X42728Y38720
X42078Y45520
X40615Y42833
X27864Y31934
X26128Y44502
X40528Y48320
X40528Y46820
X40528Y49420
X39096Y49720
X31278Y36520
X34228Y35020
X37128Y36620
X31596Y34262
X38328Y36620
X34128Y28620
X39007Y36499
X32677Y29337
X32123Y44625
X32828Y34220
X31628Y29128
X37712Y36620
X39203Y46339
X25328Y33386
X30628Y36457
X36323Y29905
X29828Y34186
X36378Y29150
X40778Y41770
X32354Y49289
X44478Y7210
X41778Y42520
X32354Y49900
X43859Y7000
X40728Y1200
X37328Y25500
X39449Y17954
X34528Y5154
X39492Y25826
X35029Y6900
X38728Y25700
X39528Y32232
X40528Y26100
X37346Y14254
X40208Y6650
X30778Y41020
X34178Y52820
X29528Y25770
X32060Y26778
X28328Y42900
X29928Y33400
X40504Y11585
X51646Y39070
X50596Y39070
X48996Y35670
X50296Y34770
X53196Y34820
X52796Y35120
X54896Y15670
X55446Y15670
X64246Y38870
X64996Y38870
X65396Y38520
X59996Y53420
X60346Y52970
X60446Y53770
X61846Y56120
X52046Y52920
X52246Y51170
X61846Y54220
X60846Y54170
X52196Y40570
X51596Y40570
X52296Y41470
X51396Y41620
X56446Y52420
X56646Y54620
X57796Y54620
X60346Y52320
X61846Y56670
X60046Y56120
X60146Y56870
X60846Y57120
X61496Y57070
X60096Y55470
X59496Y55120
X59146Y54770
X58746Y54370
X58496Y53820
X58146Y53020
X58046Y52420
X59446Y57370
X61346Y54220
X54446Y57370
X54546Y54770
X56196Y35020
X57328Y6866
X61496Y38570
X68296Y22870
X67596Y22800
X68896Y22870
X49196Y18270
X48696Y18070
X49696Y17870
X49196Y17670
X63196Y16370
X63096Y16870
X62896Y17370
X63246Y14020
X58996Y43670
X58946Y49170
X51396Y31220
X51096Y30820
X59996Y31520
X60496Y31620
X55496Y25920
X60896Y26220
X57538Y8756
X58308Y8756
X60496Y18720
X60496Y18220
X59996Y18720
X60496Y17720
X59996Y19220
X60496Y19220
X60496Y19720
X59996Y19720
X60496Y20220
X51155Y34680
X51505Y35030
X58346Y35120
X59096Y27620
X59096Y28120
X59096Y28620
X59596Y28520
X59596Y28020
X59596Y27520
X64454Y34890
X64954Y34900
X56446Y53070
X59996Y18220
X59996Y17720
X50396Y5300
X66296Y5000
X49143Y45513
X49196Y10300
X48596Y10300
X47996Y10300
X56057Y24861
X67636Y8050
X52646Y21900
X53046Y21600
X52596Y21400
X59796Y22300
X58696Y22200
X59196Y22400
X60341Y8855
X51896Y45388
X51196Y30220
X50696Y7368
X56168Y28100
X52096Y45970
X51630Y29815
X53096Y7200
X58752Y27100
X52436Y20050
X50746Y33138
X52986Y20020
X53986Y20020
X53486Y20020
X62316Y7304
X63136Y33720
X62649Y22951
X65721Y41295
X66596Y49000
X59096Y11220
X59596Y11220
X59496Y10720
X60096Y11420
X58996Y10720
X53646Y25170
X54046Y25470
X54446Y25170
X53646Y25770
X54046Y26070
X54446Y25770
X54546Y26270
X54146Y26620
X59996Y10920
X49696Y31020
X54046Y24820
X53328Y30762
X63128Y15590
X63678Y15590
X65556Y18400
X57396Y10980
X56996Y10680
X56996Y11280
X57796Y11280
X57796Y10680
X51946Y41970
X51696Y1100
X48496Y25500
X51696Y38120
X52338Y43352
X52066Y44050
X64416Y36910
X64746Y37420
X64220Y37894
X64614Y38326
X66096Y38720
X65446Y45520
X63983Y42833
X51232Y31934
X49496Y44502
X63896Y48320
X63896Y46820
X63896Y49420
X62464Y49720
X54646Y36520
X57596Y35020
X60496Y36620
X54964Y34262
X61696Y36620
X57496Y28620
X62375Y36499
X56045Y29337
X55491Y44625
X56196Y34220
X54996Y29128
X61080Y36620
X62571Y46339
X48696Y33386
X53996Y36457
X59691Y29905
X53196Y34186
X59746Y29150
X64146Y41770
X55722Y49289
X67846Y7210
X65146Y42520
X55722Y49900
X67227Y7000
X64096Y1200
X60696Y25500
X62817Y17954
X57896Y5154
X62860Y25826
X58397Y6900
X62096Y25700
X62896Y32232
X63896Y26100
X60714Y14254
X63576Y6650
X54146Y41020
X57546Y52820
X52896Y25770
X55428Y26778
X51696Y42900
X53296Y33400
X63872Y11585
X75014Y39070
X73964Y39070
X72364Y35670
X73664Y34770
X76564Y34820
X76164Y35120
X78264Y15670
X78814Y15670
X87614Y38870
X88364Y38870
X88764Y38520
X83364Y53420
X83714Y52970
X83814Y53770
X85214Y56120
X75414Y52920
X75614Y51170
X85214Y54220
X84214Y54170
X75564Y40570
X74964Y40570
X75664Y41470
X74764Y41620
X79814Y52420
X80014Y54620
X81164Y54620
X83714Y52320
X85214Y56670
X83414Y56120
X83514Y56870
X84214Y57120
X84864Y57070
X83464Y55470
X82864Y55120
X82514Y54770
X82114Y54370
X81864Y53820
X81514Y53020
X81414Y52420
X82814Y57370
X84714Y54220
X77814Y57370
X77914Y54770
X79564Y35020
X80696Y6866
X84864Y38570
X91664Y22870
X90964Y22800
X92264Y22870
X72564Y18270
X72064Y18070
X73064Y17870
X72564Y17670
X86564Y16370
X86464Y16870
X86264Y17370
X86614Y14020
X82364Y43670
X82314Y49170
X74764Y31220
X74464Y30820
X83364Y31520
X83864Y31620
X78864Y25920
X84264Y26220
X80906Y8756
X81676Y8756
X83864Y18720
X83864Y18220
X83364Y18720
X83864Y17720
X83364Y19220
X83864Y19220
X83864Y19720
X83364Y19720
X83864Y20220
X74523Y34680
X74873Y35030
X81714Y35120
X82464Y27620
X82464Y28120
X82464Y28620
X82964Y28520
X82964Y28020
X82964Y27520
X87822Y34890
X88322Y34900
X79814Y53070
X83364Y18220
X83364Y17720
X73764Y5300
X89664Y5000
X72511Y45513
X72564Y10300
X71964Y10300
X71364Y10300
X79425Y24861
X91004Y8050
X76014Y21900
X76414Y21600
X75964Y21400
X83164Y22300
X82064Y22200
X82564Y22400
X83709Y8855
X75264Y45388
X74564Y30220
X74064Y7368
X79536Y28100
X75464Y45970
X74998Y29815
X76464Y7200
X82120Y27100
X75804Y20050
X74114Y33138
X76354Y20020
X77354Y20020
X76854Y20020
X85684Y7304
X86504Y33720
X86017Y22951
X89089Y41295
X89964Y49000
X82464Y11220
X82964Y11220
X82864Y10720
X83464Y11420
X82364Y10720
X77014Y25170
X77414Y25470
X77814Y25170
X77014Y25770
X77414Y26070
X77814Y25770
X77914Y26270
X77514Y26620
X83364Y10920
X73064Y31020
X77414Y24820
X76696Y30762
X86496Y15590
X87046Y15590
X88924Y18400
X80764Y10980
X80364Y10680
X80364Y11280
X81164Y11280
X81164Y10680
X75314Y41970
X75064Y1100
X71864Y25500
X75064Y38120
X75706Y43352
X75434Y44050
X87784Y36910
X88114Y37420
X87588Y37894
X87982Y38326
X89464Y38720
X88814Y45520
X87351Y42833
X74600Y31934
X72864Y44502
X87264Y48320
X87264Y46820
X87264Y49420
X85832Y49720
X78014Y36520
X80964Y35020
X83864Y36620
X78332Y34262
X85064Y36620
X80864Y28620
X85743Y36499
X79413Y29337
X78859Y44625
X79564Y34220
X78364Y29128
X84448Y36620
X85939Y46339
X72064Y33386
X77364Y36457
X83059Y29905
X76564Y34186
X83114Y29150
X87514Y41770
X79090Y49289
X91214Y7210
X88514Y42520
X79090Y49900
X90595Y7000
X87464Y1200
X84064Y25500
X86185Y17954
X81264Y5154
X86228Y25826
X81765Y6900
X85464Y25700
X86264Y32232
X87264Y26100
X84082Y14254
X86944Y6650
X77514Y41020
X80914Y52820
X76264Y25770
X78796Y26778
X75064Y42900
X76664Y33400
X87240Y11585
X4910Y100538
X3860Y100538
X2260Y97138
X3560Y96238
X6460Y96288
X6060Y96588
X8160Y77138
X8710Y77138
X17510Y100338
X18260Y100338
X18660Y99988
X13260Y114888
X13610Y114438
X13710Y115238
X15110Y117588
X5310Y114388
X5510Y112638
X15110Y115688
X14110Y115638
X5460Y102038
X4860Y102038
X5560Y102938
X4660Y103088
X9710Y113888
X9910Y116088
X11060Y116088
X13610Y113788
X15110Y118138
X13310Y117588
X13410Y118338
X14110Y118588
X14760Y118538
X13360Y116938
X12760Y116588
X12410Y116238
X12010Y115838
X11760Y115288
X11410Y114488
X11310Y113888
X12710Y118838
X14610Y115688
X7710Y118838
X7810Y116238
X9460Y96488
X10592Y68334
X14760Y100038
X21560Y84338
X20860Y84268
X22160Y84338
X2460Y79738
X1960Y79538
X2960Y79338
X2460Y79138
X16460Y77838
X16360Y78338
X16160Y78838
X16510Y75488
X12260Y105138
X12210Y110638
X4660Y92688
X4360Y92288
X13260Y92988
X13760Y93088
X8760Y87388
X14160Y87688
X10802Y70224
X11572Y70224
X13760Y80188
X13760Y79688
X13260Y80188
X13760Y79188
X13260Y80688
X13760Y80688
X13760Y81188
X13260Y81188
X13760Y81688
X4419Y96148
X4769Y96498
X11610Y96588
X12360Y89088
X12360Y89588
X12360Y90088
X12860Y89988
X12860Y89488
X12860Y88988
X17718Y96358
X18218Y96368
X9710Y114538
X13260Y79688
X13260Y79188
X3660Y66768
X19560Y66468
X2407Y106981
X2460Y71768
X1860Y71768
X1260Y71768
X9321Y86329
X20900Y69518
X5910Y83368
X6310Y83068
X5860Y82868
X13060Y83768
X11960Y83668
X12460Y83868
X13605Y70323
X5160Y106856
X4460Y91688
X3960Y68836
X9432Y89568
X5360Y107438
X4894Y91283
X6360Y68668
X12016Y88568
X5700Y81518
X4010Y94606
X6250Y81488
X7250Y81488
X6750Y81488
X15580Y68772
X16400Y95188
X15913Y84419
X18985Y102763
X19860Y110468
X12360Y72688
X12860Y72688
X12760Y72188
X13360Y72888
X12260Y72188
X6910Y86638
X7310Y86938
X7710Y86638
X6910Y87238
X7310Y87538
X7710Y87238
X7810Y87738
X7410Y88088
X13260Y72388
X2960Y92488
X7310Y86288
X6592Y92230
X16392Y77058
X16942Y77058
X18820Y79868
X10660Y72448
X10260Y72148
X10260Y72748
X11060Y72748
X11060Y72148
X5210Y103438
X4960Y62568
X1760Y86968
X4960Y99588
X34678Y52420
X5330Y105518
X17680Y98378
X18010Y98888
X17484Y99362
X17878Y99794
X19360Y100188
X18710Y106988
X17247Y104301
X4496Y93402
X2760Y105970
X17160Y109788
X17160Y108288
X17160Y110888
X15728Y111188
X7910Y97988
X10860Y96488
X13760Y98088
X8228Y95730
X14960Y98088
X10760Y90088
X15639Y97967
X9309Y90805
X8755Y106093
X9460Y95688
X8260Y90596
X14344Y98088
X15835Y107807
X1960Y94854
X7260Y97925
X12955Y91373
X6460Y95654
X13010Y90618
X17410Y103238
X8986Y110757
X21110Y68678
X18410Y103988
X8986Y111368
X20491Y68468
X17360Y62668
X13960Y86968
X16081Y79422
X11160Y66622
X16124Y87294
X11661Y68368
X15360Y87168
X16160Y93700
X17160Y87568
X13978Y75722
X16840Y68118
X7410Y102488
X10810Y114288
X6160Y87238
X8692Y88246
X4960Y104368
X6560Y94868
X17136Y73053
X28278Y100538
X27228Y100538
X25628Y97138
X26928Y96238
X29828Y96288
X29428Y96588
X31528Y77138
X32078Y77138
X40878Y100338
X41628Y100338
X42028Y99988
X36628Y114888
X36978Y114438
X37078Y115238
X38478Y117588
X28678Y114388
X28878Y112638
X38478Y115688
X37478Y115638
X28828Y102038
X28228Y102038
X28928Y102938
X28028Y103088
X33078Y113888
X33278Y116088
X34428Y116088
X36978Y113788
X38478Y118138
X36678Y117588
X36778Y118338
X37478Y118588
X38128Y118538
X36728Y116938
X36128Y116588
X35778Y116238
X35378Y115838
X35128Y115288
X34778Y114488
X34678Y113888
X36078Y118838
X37978Y115688
X31078Y118838
X31178Y116238
X32828Y96488
X33960Y68334
X38128Y100038
X44928Y84338
X44228Y84268
X45528Y84338
X25828Y79738
X25328Y79538
X26328Y79338
X25828Y79138
X39828Y77838
X39728Y78338
X39528Y78838
X39878Y75488
X35628Y105138
X35578Y110638
X28028Y92688
X27728Y92288
X36628Y92988
X37128Y93088
X32128Y87388
X37528Y87688
X34170Y70224
X34940Y70224
X37128Y80188
X37128Y79688
X36628Y80188
X37128Y79188
X36628Y80688
X37128Y80688
X37128Y81188
X36628Y81188
X37128Y81688
X27787Y96148
X28137Y96498
X34978Y96588
X35728Y89088
X35728Y89588
X35728Y90088
X36228Y89988
X36228Y89488
X36228Y88988
X41086Y96358
X41586Y96368
X33078Y114538
X36628Y79688
X36628Y79188
X27028Y66768
X42928Y66468
X25775Y106981
X25828Y71768
X25228Y71768
X24628Y71768
X32689Y86329
X44268Y69518
X29278Y83368
X29678Y83068
X29228Y82868
X36428Y83768
X35328Y83668
X35828Y83868
X36973Y70323
X28528Y106856
X27828Y91688
X27328Y68836
X32800Y89568
X28728Y107438
X28262Y91283
X29728Y68668
X35384Y88568
X29068Y81518
X27378Y94606
X29618Y81488
X30618Y81488
X30118Y81488
X38948Y68772
X39768Y95188
X39281Y84419
X42353Y102763
X43228Y110468
X35728Y72688
X36228Y72688
X36128Y72188
X36728Y72888
X35628Y72188
X30278Y86638
X30678Y86938
X31078Y86638
X30278Y87238
X30678Y87538
X31078Y87238
X31178Y87738
X30778Y88088
X36628Y72388
X26328Y92488
X30678Y86288
X29960Y92230
X39760Y77058
X40310Y77058
X42188Y79868
X34028Y72448
X33628Y72148
X33628Y72748
X34428Y72748
X34428Y72148
X28578Y103438
X28328Y62568
X25128Y86968
X28328Y99588
X28970Y104820
X28698Y105518
X41048Y98378
X41378Y98888
X40852Y99362
X41246Y99794
X42728Y100188
X42078Y106988
X40615Y104301
X27864Y93402
X26128Y105970
X40528Y109788
X40528Y108288
X40528Y110888
X39096Y111188
X31278Y97988
X34228Y96488
X37128Y98088
X31596Y95730
X38328Y98088
X34128Y90088
X39007Y97967
X32677Y90805
X32123Y106093
X32828Y95688
X31628Y90596
X37712Y98088
X39203Y107807
X25328Y94854
X30628Y97925
X36323Y91373
X29828Y95654
X36378Y90618
X40778Y103238
X32354Y110757
X44478Y68678
X41778Y103988
X32354Y111368
X43859Y68468
X40728Y62668
X37328Y86968
X39449Y79422
X34528Y66622
X39492Y87294
X35029Y68368
X38728Y87168
X39528Y93700
X40528Y87568
X37346Y75722
X40208Y68118
X30778Y102488
X34178Y114288
X29528Y87238
X32060Y88246
X28328Y104368
X29928Y94868
X40504Y73053
X51646Y100538
X50596Y100538
X48996Y97138
X50296Y96238
X53196Y96288
X52796Y96588
X54896Y77138
X55446Y77138
X64246Y100338
X64996Y100338
X65396Y99988
X59996Y114888
X60346Y114438
X60446Y115238
X61846Y117588
X52046Y114388
X52246Y112638
X61846Y115688
X60846Y115638
X52196Y102038
X51596Y102038
X52296Y102938
X51396Y103088
X56446Y113888
X56646Y116088
X57796Y116088
X60346Y113788
X61846Y118138
X60046Y117588
X60146Y118338
X60846Y118588
X61496Y118538
X60096Y116938
X59496Y116588
X59146Y116238
X58746Y115838
X58496Y115288
X58146Y114488
X58046Y113888
X59446Y118838
X61346Y115688
X54446Y118838
X54546Y116238
X56196Y96488
X57328Y68334
X61496Y100038
X68296Y84338
X67596Y84268
X68896Y84338
X49196Y79738
X48696Y79538
X49696Y79338
X49196Y79138
X63196Y77838
X63096Y78338
X62896Y78838
X63246Y75488
X58996Y105138
X58946Y110638
X51396Y92688
X51096Y92288
X59996Y92988
X60496Y93088
X55496Y87388
X60896Y87688
X57538Y70224
X58308Y70224
X60496Y80188
X60496Y79688
X59996Y80188
X60496Y79188
X59996Y80688
X60496Y80688
X60496Y81188
X59996Y81188
X60496Y81688
X51155Y96148
X51505Y96498
X58346Y96588
X59096Y89088
X59096Y89588
X59096Y90088
X59596Y89988
X59596Y89488
X59596Y88988
X64454Y96358
X64954Y96368
X56446Y114538
X59996Y79688
X59996Y79188
X50396Y66768
X66296Y66468
X49143Y106981
X49196Y71768
X48596Y71768
X47996Y71768
X56057Y86329
X67636Y69518
X52646Y83368
X53046Y83068
X52596Y82868
X59796Y83768
X58696Y83668
X59196Y83868
X60341Y70323
X51896Y106856
X51196Y91688
X50696Y68836
X56168Y89568
X52096Y107438
X51630Y91283
X53096Y68668
X58752Y88568
X52436Y81518
X50746Y94606
X52986Y81488
X53986Y81488
X53486Y81488
X62316Y68772
X63136Y95188
X62649Y84419
X65721Y102763
X66596Y110468
X59096Y72688
X59596Y72688
X59496Y72188
X60096Y72888
X58996Y72188
X53646Y86638
X54046Y86938
X54446Y86638
X53646Y87238
X54046Y87538
X54446Y87238
X54546Y87738
X54146Y88088
X59996Y72388
X49696Y92488
X54046Y86288
X53328Y92230
X63128Y77058
X63678Y77058
X65556Y79868
X57396Y72448
X56996Y72148
X56996Y72748
X57796Y72748
X57796Y72148
X51946Y103438
X51696Y62568
X48496Y86968
X51696Y99588
X52338Y104820
X52066Y105518
X64416Y98378
X64746Y98888
X64220Y99362
X64614Y99794
X66096Y100188
X65446Y106988
X63983Y104301
X51232Y93402
X49496Y105970
X63896Y109788
X63896Y108288
X63896Y110888
X62464Y111188
X54646Y97988
X57596Y96488
X60496Y98088
X54964Y95730
X61696Y98088
X57496Y90088
X62375Y97967
X56045Y90805
X55491Y106093
X56196Y95688
X54996Y90596
X61080Y98088
X62571Y107807
X48696Y94854
X53996Y97925
X59691Y91373
X53196Y95654
X59746Y90618
X64146Y103238
X55722Y110757
X67846Y68678
X65146Y103988
X55722Y111368
X67227Y68468
X64096Y62668
X60696Y86968
X62817Y79422
X57896Y66622
X62860Y87294
X58397Y68368
X62096Y87168
X62896Y93700
X63896Y87568
X60714Y75722
X63576Y68118
X54146Y102488
X57546Y114288
X52896Y87238
X55428Y88246
X51696Y104368
X53296Y94868
X63872Y73053
X75014Y100538
X73964Y100538
X72364Y97138
X73664Y96238
X76564Y96288
X76164Y96588
X78264Y77138
X78814Y77138
X87614Y100338
X88364Y100338
X88764Y99988
X83364Y114888
X83714Y114438
X83814Y115238
X85214Y117588
X75414Y114388
X75614Y112638
X85214Y115688
X4910Y39070
X75564Y102038
X74964Y102038
X75664Y102938
X74764Y103088
X79814Y113888
X80014Y116088
X81164Y116088
X83714Y113788
X85214Y118138
X83414Y117588
X83514Y118338
X84214Y118588
X84864Y118538
X83464Y116938
X82864Y116588
X82514Y116238
X82114Y115838
X81864Y115288
X81514Y114488
X81414Y113888
X82814Y118838
X84714Y115688
X77814Y118838
X77914Y116238
X79564Y96488
X80696Y68334
X84864Y100038
X91664Y84338
X90964Y84268
X92264Y84338
X72564Y79738
X72064Y79538
X73064Y79338
X72564Y79138
X86564Y77838
X86464Y78338
X86264Y78838
X86614Y75488
X82364Y105138
X82314Y110638
X74764Y92688
X74464Y92288
X83364Y92988
X83864Y93088
X78864Y87388
X84264Y87688
X80906Y70224
X81676Y70224
X83864Y80188
X83864Y79688
X83364Y80188
X83864Y79188
X83364Y80688
X83864Y80688
X83864Y81188
X83364Y81188
X83864Y81688
X74523Y96148
X74873Y96498
X81714Y96588
X82464Y89088
X82464Y89588
X82464Y90088
X82964Y89988
X82964Y89488
X82964Y88988
X87822Y96358
X88322Y96368
X79814Y114538
X83364Y79688
X83364Y79188
X73764Y66768
X89664Y66468
X72511Y106981
X72564Y71768
X71964Y71768
X71364Y71768
X79425Y86329
X91004Y69518
X76014Y83368
X76414Y83068
X75964Y82868
X83164Y83768
X82064Y83668
X82564Y83868
X83709Y70323
X75264Y106856
X74564Y91688
X74064Y68836
X79536Y89568
X75464Y107438
X74998Y91283
X76464Y68668
X82120Y88568
X75804Y81518
X74114Y94606
X76354Y81488
X77354Y81488
X76854Y81488
X85684Y68772
X86504Y95188
X86017Y84419
X89089Y102763
X89964Y110468
X82464Y72688
X82964Y72688
X82864Y72188
X83464Y72888
X82364Y72188
X77014Y86638
X77414Y86938
X77814Y86638
X77014Y87238
X77414Y87538
X77814Y87238
X77914Y87738
X77514Y88088
X83364Y72388
X73064Y92488
X77414Y86288
X76696Y92230
X86496Y77058
X87046Y77058
X88924Y79868
X80764Y72448
X80364Y72148
X80364Y72748
X81164Y72748
X81164Y72148
X75314Y103438
X75064Y62568
X71864Y86968
X75064Y99588
X75706Y104820
X75434Y105518
X87784Y98378
X88114Y98888
X87588Y99362
X87982Y99794
X89464Y100188
X88814Y106988
X87351Y104301
X74600Y93402
X72864Y105970
X87264Y109788
X87264Y108288
X87264Y110888
X85832Y111188
X78014Y97988
X80964Y96488
X83864Y98088
X78332Y95730
X85064Y98088
X80864Y90088
X85743Y97967
X79413Y90805
X78859Y106093
X79564Y95688
X78364Y90596
X84448Y98088
X85939Y107807
X72064Y94854
X77364Y97925
X83059Y91373
X76564Y95654
X83114Y90618
X87514Y103238
X79090Y110757
X91214Y68678
X88514Y103988
X79090Y111368
X90595Y68468
X87464Y62668
X84064Y86968
X86185Y79422
X81264Y66622
X86228Y87294
X81765Y68368
X85464Y87168
X86264Y93700
X87264Y87568
X84082Y75722
X86944Y68118
X77514Y102488
X80914Y114288
X76264Y87238
X78796Y88246
X75064Y104368
X76664Y94868
X87240Y73053
X3860Y39070
X2260Y35670
X3560Y34770
X6460Y34820
X6060Y35120
X8160Y15670
X8710Y15670
X17510Y38870
X18260Y38870
X18660Y38520
X13260Y53420
X13610Y52970
X13710Y53770
X15110Y56120
X5310Y52920
X5510Y51170
X15110Y54220
X14110Y54170
X5460Y40570
X4860Y40570
X5560Y41470
X4660Y41620
X9710Y52420
X9910Y54620
X11060Y54620
X13610Y52320
X15110Y56670
X13310Y56120
X13410Y56870
X14110Y57120
X14760Y57070
X13360Y55470
X12760Y55120
X12410Y54770
X12010Y54370
X11760Y53820
X11410Y53020
X11310Y52420
X12710Y57370
X14610Y54220
X7710Y57370
X7810Y54770
X9460Y35020
X10592Y6866
X14760Y38570
X21560Y22870
X20860Y22800
X22160Y22870
X2460Y18270
X1960Y18070
X2960Y17870
X2460Y17670
X16460Y16370
X16360Y16870
X16160Y17370
X16510Y14020
X5602Y104820
X12260Y43670
X12210Y49170
X4660Y31220
X4360Y30820
X13260Y31520
X13760Y31620
X8760Y25920
X14160Y26220
X10802Y8756
X11572Y8756
X13760Y18720
X13760Y18220
X13260Y18720
X13760Y17720
X13260Y19220
X13760Y19220
X13760Y19720
X13260Y19720
X13760Y20220
X4419Y34680
X4769Y35030
X11610Y35120
X12360Y27620
X12360Y28120
X12360Y28620
X12860Y28520
X12860Y28020
X12860Y27520
X17718Y34890
X18218Y34900
X9710Y53070
X13260Y18220
X13260Y17720
X3660Y5300
X19560Y5000
X2407Y45513
X2460Y10300
X1860Y10300
X1260Y10300
X9321Y24861
X20900Y8050
X5910Y21900
X6310Y21600
X5860Y21400
X13060Y22300
X11960Y22200
X12460Y22400
X13605Y8855
X5160Y45388
X4460Y30220
X3960Y7368
X9432Y28100
X5360Y45970
X4894Y29815
X6360Y7200
X12016Y27100
X5700Y20050
X4010Y33138
X6250Y20020
X7250Y20020
X6750Y20020
X15580Y7304
X16400Y33720
X15913Y22951
X18985Y41295
X19860Y49000
X12360Y11220
X12860Y11220
X12760Y10720
X13360Y11420
X12260Y10720
X6910Y25170
X7310Y25470
X7710Y25170
X6910Y25770
X7310Y26070
X7710Y25770
X7810Y26270
X7410Y26620
X13260Y10920
X2960Y31020
X7310Y24820
X6592Y30762
X16392Y15590
X16942Y15590
X18820Y18400
X10660Y10980
X10260Y10680
X10260Y11280
X11060Y11280
X11060Y10680
X5210Y41970
X4960Y1100
X1760Y25500
X4960Y38120
X5602Y43352
X5330Y44050
X17680Y36910
X18010Y37420
X17484Y37894
X17878Y38326
X19360Y38720
X18710Y45520
X17247Y42833
X4496Y31934
X2760Y44502
X17160Y48320
X17160Y46820
X17160Y49420
X15728Y49720
X7910Y36520
X10860Y35020
X13760Y36620
X8228Y34262
X14960Y36620
X10760Y28620
X15639Y36499
X9309Y29337
X8755Y44625
X9460Y34220
X8260Y29128
X14344Y36620
X15835Y46339
X1960Y33386
X7260Y36457
X12955Y29905
X6460Y34186
X13010Y29150
X17410Y41770
X8986Y49289
X21110Y7210
X18410Y42520
X8986Y49900
X20491Y7000
X17360Y1200
X13960Y25500
X16081Y17954
X11160Y5154
X16124Y25826
X11661Y6900
X15360Y25700
X16160Y32232
X17160Y26100
X13978Y14254
X16840Y6650
X7410Y41020
X10810Y52820
X6160Y25770
X8692Y26778
X4960Y42900
X6560Y33400
X17136Y11585
X28278Y39070
X27228Y39070
X25628Y35670
X26928Y34770
X29828Y34820
X29428Y35120
X31528Y15670
X32078Y15670
X40878Y38870
X41628Y38870
X42028Y38520
X36628Y53420
X36978Y52970
X37078Y53770
X38478Y56120
X28678Y52920
X28878Y51170
X38478Y54220
X37478Y54170
X28828Y40570
X28228Y40570
X28928Y41470
X28028Y41620
X33078Y52420
X33278Y54620
X34428Y54620
X36978Y52320
X38478Y56670
X36678Y56120
X36778Y56870
X37478Y57120
X38128Y57070
X36728Y55470
X36128Y55120
X35778Y54770
X35378Y54370
X35128Y53820
X34778Y53020
X36078Y57370
X37978Y54220
X31078Y57370
X31178Y54770
X32828Y35020
X33960Y6866
X38128Y38570
X44928Y22870
X44228Y22800
X45528Y22870
X25828Y18270
X25328Y18070
X26328Y17870
X25828Y17670
X39828Y16370
X39728Y16870
X39528Y17370
X39878Y14020
X35628Y43670
X35578Y49170
X28028Y31220
X27728Y30820
X36628Y31520
X37128Y31620
X32128Y25920
X37528Y26220
X34170Y8756
X34940Y8756
X37128Y18720
X37128Y18220
X36628Y18720
X37128Y17720
X36628Y19220
X37128Y19220
X37128Y19720
X36628Y19720
X37128Y20220
X27787Y34680
X28137Y35030
X34978Y35120
X35728Y27620
X35728Y28120
X35728Y28620
X36228Y28520
X36228Y28020
X36228Y27520
X41086Y34890
X41586Y34900
X33078Y53070
X36628Y18220
X36628Y17720
X27028Y5300
X42928Y5000
X25775Y45513
X25828Y10300
X25228Y10300
X84214Y115638
M30